<svg width="26" height="25" viewBox="0 0 26 25" fill="none" xmlns="http://www.w3.org/2000/svg">
<g filter="url(#filter0_d_1_12050)">
<mask id="path-1-outside-1_1_12050" maskUnits="userSpaceOnUse" x="3" y="-1" width="20" height="19" fill="black">
<rect fill="white" x="3" y="-1" width="20" height="19"/>
<path d="M6.60653 16.5241L4.9446 14.8622L17.3026 2.48295H7.7571L7.77841 0.181818H21.2656V13.6903H18.9432L18.9645 4.14489L6.60653 16.5241Z"/>
</mask>
<path d="M6.60653 16.5241L4.9446 14.8622L17.3026 2.48295H7.7571L7.77841 0.181818H21.2656V13.6903H18.9432L18.9645 4.14489L6.60653 16.5241Z" fill="white"/>
<path d="M6.60653 16.5241L5.89943 17.2313L6.60714 17.939L7.31425 17.2306L6.60653 16.5241ZM4.9446 14.8622L4.23689 14.1557L3.531 14.8628L4.2375 15.5693L4.9446 14.8622ZM17.3026 2.48295L18.0103 3.18945L19.7138 1.48295H17.3026V2.48295ZM7.7571 2.48295L6.75715 2.4737L6.7478 3.48295H7.7571V2.48295ZM7.77841 0.181818V-0.818182H6.78763L6.77845 0.172558L7.77841 0.181818ZM21.2656 0.181818H22.2656V-0.818182H21.2656V0.181818ZM21.2656 13.6903V14.6903H22.2656V13.6903H21.2656ZM18.9432 13.6903L17.9432 13.6881L17.9409 14.6903H18.9432V13.6903ZM18.9645 4.14489L19.9645 4.14712L19.9699 1.72231L18.2568 3.43839L18.9645 4.14489ZM7.31364 15.817L5.65171 14.1551L4.2375 15.5693L5.89943 17.2313L7.31364 15.817ZM5.65232 15.5687L18.0103 3.18945L16.5948 1.77646L4.23689 14.1557L5.65232 15.5687ZM17.3026 1.48295H7.7571V3.48295H17.3026V1.48295ZM8.75706 2.49221L8.77837 0.191077L6.77845 0.172558L6.75715 2.4737L8.75706 2.49221ZM7.77841 1.18182H21.2656V-0.818182H7.77841V1.18182ZM20.2656 0.181818V13.6903H22.2656V0.181818H20.2656ZM21.2656 12.6903H18.9432V14.6903H21.2656V12.6903ZM19.9432 13.6926L19.9645 4.14712L17.9645 4.14265L17.9432 13.6881L19.9432 13.6926ZM18.2568 3.43839L5.89882 15.8176L7.31425 17.2306L19.6722 4.85138L18.2568 3.43839Z" fill="black" mask="url(#path-1-outside-1_1_12050)"/>
</g>
<defs>
<filter id="filter0_d_1_12050" x="0.944336" y="0.181824" width="24.3213" height="24.3423" filterUnits="userSpaceOnUse" color-interpolation-filters="sRGB">
<feFlood flood-opacity="0" result="BackgroundImageFix"/>
<feColorMatrix in="SourceAlpha" type="matrix" values="0 0 0 0 0 0 0 0 0 0 0 0 0 0 0 0 0 0 127 0" result="hardAlpha"/>
<feOffset dy="4"/>
<feGaussianBlur stdDeviation="2"/>
<feComposite in2="hardAlpha" operator="out"/>
<feColorMatrix type="matrix" values="0 0 0 0 0 0 0 0 0 0 0 0 0 0 0 0 0 0 0.25 0"/>
<feBlend mode="normal" in2="BackgroundImageFix" result="effect1_dropShadow_1_12050"/>
<feBlend mode="normal" in="SourceGraphic" in2="effect1_dropShadow_1_12050" result="shape"/>
</filter>
</defs>
</svg>
